<svg width="95" height="31" viewBox="0 0 95 31" fill="none" xmlns="http://www.w3.org/2000/svg">
<rect x="12" y="9.53674e-07" width="31" height="12" rx="6" transform="rotate(90 12 9.53674e-07)" fill="#1E4DB7"/>
<rect y="9.53674e-07" width="25" height="12" rx="6" fill="#1A9BFC"/>
<circle cx="18.5" cy="22.5" r="6.5" fill="#FEC90F"/>
<path d="M37 21.5V4.7H47.848V7.172H40.072V11.876H46.36V14.3H40.072V21.5H37Z" fill="#11142D"/>
<path d="M49.9068 21.5V4.22H52.9788V21.5H49.9068Z" fill="#11142D"/>
<path d="M61.6617 21.788C60.4617 21.788 59.3977 21.532 58.4697 21.02C57.5417 20.508 56.8137 19.788 56.2857 18.86C55.7577 17.932 55.4937 16.86 55.4937 15.644C55.4937 14.412 55.7497 13.316 56.2617 12.356C56.7897 11.396 57.5097 10.652 58.4217 10.124C59.3497 9.58 60.4377 9.308 61.6857 9.308C62.8537 9.308 63.8857 9.564 64.7817 10.076C65.6777 10.588 66.3737 11.292 66.8697 12.188C67.3817 13.068 67.6377 14.052 67.6377 15.14C67.6377 15.316 67.6297 15.5 67.6137 15.692C67.6137 15.884 67.6057 16.084 67.5897 16.292H58.5417C58.6057 17.22 58.9257 17.948 59.5017 18.476C60.0937 19.004 60.8057 19.268 61.6377 19.268C62.2617 19.268 62.7817 19.132 63.1977 18.86C63.6297 18.572 63.9497 18.204 64.1577 17.756H67.2777C67.0537 18.508 66.6777 19.196 66.1497 19.82C65.6377 20.428 64.9977 20.908 64.2297 21.26C63.4777 21.612 62.6217 21.788 61.6617 21.788ZM61.6857 11.804C60.9337 11.804 60.2697 12.02 59.6937 12.452C59.1177 12.868 58.7497 13.508 58.5897 14.372H64.5177C64.4697 13.588 64.1817 12.964 63.6537 12.5C63.1257 12.036 62.4697 11.804 61.6857 11.804Z" fill="#11142D"/>
<path d="M68.0331 21.5L72.3531 15.548L68.0331 9.596H71.3211L74.3451 13.82L77.3451 9.596H80.6571L76.3131 15.548L80.6571 21.5H77.3451L74.3451 17.276L71.3211 21.5H68.0331Z" fill="#11142D"/>
<path d="M83.8623 26.78L86.6222 20.708H85.9023L81.2703 9.596H84.6063L87.9423 17.972L91.4223 9.596H94.6863L87.1263 26.78H83.8623Z" fill="#11142D"/>
</svg>
