<svg width="27" height="33" viewBox="0 0 27 33" fill="none" xmlns="http://www.w3.org/2000/svg">
<g clip-path="url(#clip0_1_2)">
<path fill-rule="evenodd" clip-rule="evenodd" d="M6.723 2.086C8.28605 2.08732 9.78469 2.70883 10.8899 3.81407C11.9952 4.91931 12.6167 6.41795 12.618 7.981V26.216C12.618 27.7794 11.9969 29.2789 10.8914 30.3844C9.78587 31.4899 8.28645 32.111 6.723 32.111C5.15955 32.111 3.66014 31.4899 2.55461 30.3844C1.44908 29.2789 0.828003 27.7794 0.828003 26.216V7.981C0.829327 6.41795 1.45083 4.91931 2.55607 3.81407C3.66131 2.70883 5.15996 2.08732 6.723 2.086Z" fill="#1E4DB7" stroke="#1E4DB7"/>
<path d="M20 1H7C3.68629 1 1 3.68629 1 7C1 10.3137 3.68629 13 7 13H20C23.3137 13 26 10.3137 26 7C26 3.68629 23.3137 1 20 1Z" fill="#1A97F5" stroke="#1A97F5"/>
<path d="M19.703 28.297C23.1979 28.297 26.031 25.4639 26.031 21.969C26.031 18.4741 23.1979 15.641 19.703 15.641C16.2081 15.641 13.375 18.4741 13.375 21.969C13.375 25.4639 16.2081 28.297 19.703 28.297Z" fill="#FDC90F" stroke="#FDC90F"/>
</g>
<defs>
<clipPath id="clip0_1_2">
<rect width="27" height="33" fill="white"/>
</clipPath>
</defs>
</svg>
